<svg height="512pt" viewBox="0 0 512 511" width="512pt" xmlns="http://www.w3.org/2000/svg"><path d="m506.796875 51.492188h-214.496094l-7.003906-46.566407c-.382813-2.542969-2.566406-4.421875-5.140625-4.421875h-115.160156c-2.570313 0-4.757813 1.878906-5.136719 4.421875l-7.003906 46.566407h-13.410157l-7.003906-46.566407c-.382812-2.542969-2.566406-4.421875-5.136718-4.421875h-115.160157c-2.574219 0-4.757812 1.878906-5.140625 4.421875l-7.003906 46.566407h.00390625v454.761718c0 2.882813 2.32812475 5.203125 5.20312475 5.203125h501.589844c2.871094 0 5.203125-2.320312 5.203125-5.203125v-449.558594c0-2.871093-2.332031-5.203124-5.203125-5.203124zm0 0" fill="#4172cc"/><path d="m512 56.695312v449.558594c0 2.882813-2.332031 5.203125-5.203125 5.203125h-501.589844c-2.875 0-5.20312475-2.320312-5.20312475-5.203125v-454.761718h506.79296875c2.871094 0 5.203125 2.332031 5.203125 5.203124zm0 0" fill="#bebebe"/><path d="m139.449219 51.492188h-139.44531275l6.99999975-46.570313c.386719-2.539063 2.570313-4.421875 5.140625-4.421875h115.160157c2.570312 0 4.753906 1.882812 5.140624 4.421875zm0 0" fill="#4172cc"/><path d="m512 56.695312v449.558594c0 2.882813-2.332031 5.203125-5.203125 5.203125h-472.714844c-2.871093 0-5.203125-2.320312-5.203125-5.203125v-454.761718h477.917969c2.871094 0 5.203125 2.332031 5.203125 5.203124zm0 0" fill="#ebebf0"/><path d="m139.449219 51.492188h-110.570313l7.003906-46.570313c.386719-2.539063 2.570313-4.421875 5.140626-4.421875h86.28125c2.570312 0 4.753906 1.882812 5.140624 4.421875zm0 0" fill="#6990d7"/><path d="m292.300781 51.492188h-139.445312l7.003906-46.570313c.382813-2.539063 2.570313-4.421875 5.140625-4.421875h115.15625c2.570312 0 4.757812 1.882812 5.140625 4.421875zm0 0" fill="#4172cc"/><path d="m292.300781 51.492188h-110.570312l7.003906-46.570313c.386719-2.539063 2.570313-4.421875 5.140625-4.421875h86.28125c2.570312 0 4.757812 1.882812 5.140625 4.421875zm0 0" fill="#6990d7"/><path d="m512 56.695312v58.285157h-511.99609375v-63.488281h506.79296875c2.871094 0 5.203125 2.332031 5.203125 5.203124zm0 0" fill="#6990d7"/><path d="m512 56.695312v58.285157h-483.121094v-63.488281h477.917969c2.871094 0 5.203125 2.332031 5.203125 5.203124zm0 0" fill="#91aee2"/><g fill="#4172cc"><path d="m68.457031 155.148438c-16.574219 0-29.382812 7.785156-29.382812 28.753906v35.035156c0 20.96875 12.808593 28.757812 29.382812 28.757812 16.578125 0 29.511719-7.785156 29.511719-28.757812v-35.035156c0-20.96875-12.933594-28.753906-29.511719-28.753906zm13.1875 63.789062c0 9.921875-5.023437 14.441406-13.1875 14.441406-8.285156 0-13.058593-4.523437-13.058593-14.441406v-35.035156c0-9.917969 4.773437-14.4375 13.058593-14.4375 8.164063 0 13.1875 4.519531 13.1875 14.4375zm0 0"/><path d="m134.511719 179.886719c.878906 0 2.007812-.253907 3.011719-1.132813l4.019531-4.015625v67.054688c0 3.390625 4.015625 5.148437 8.160156 5.148437 4.019531 0 8.164063-1.757812 8.164063-5.148437v-81.621094c0-3.265625-3.894532-5.273437-7.285157-5.273437-1.382812 0-2.511719.5-3.390625 1.253906l-14.816406 11.300781c-2.011719 1.257813-3.140625 3.644531-3.140625 5.902344 0 3.265625 2.136719 6.53125 5.277344 6.53125zm0 0"/><path d="m225.300781 155.148438c-16.578125 0-29.386719 7.785156-29.386719 28.753906v35.035156c0 20.96875 12.808594 28.757812 29.386719 28.757812 16.574219 0 29.507813-7.785156 29.507813-28.757812v-35.035156c0-20.96875-12.933594-28.753906-29.507813-28.753906zm13.183594 63.789062c0 9.921875-5.023437 14.441406-13.183594 14.441406-8.289062 0-13.0625-4.523437-13.0625-14.441406v-35.035156c0-9.917969 4.773438-14.4375 13.0625-14.4375 8.160157 0 13.183594 4.519531 13.183594 14.4375zm0 0"/><path d="m291.351562 179.886719c.878907 0 2.007813-.253907 3.011719-1.132813l4.019531-4.015625v67.054688c0 3.390625 4.015626 5.148437 8.160157 5.148437 4.019531 0 8.164062-1.757812 8.164062-5.148437v-81.621094c0-3.265625-3.894531-5.273437-7.285156-5.273437-1.378906 0-2.507813.5-3.390625 1.253906l-14.816406 11.300781c-2.007813 1.257813-3.136719 3.644531-3.136719 5.902344 0 3.265625 2.132813 6.53125 5.273437 6.53125zm0 0"/><path d="m382.140625 247.695312c16.574219 0 29.507813-7.785156 29.507813-28.757812v-35.035156c0-20.96875-12.933594-28.753906-29.507813-28.753906-16.578125 0-29.382813 7.785156-29.382813 28.753906v35.035156c-.003906 20.96875 12.804688 28.757812 29.382813 28.757812zm-13.0625-63.792968c0-9.917969 4.773437-14.4375 13.0625-14.4375 8.160156 0 13.183594 4.519531 13.183594 14.4375v35.035156c0 9.921875-5.023438 14.441406-13.183594 14.441406-8.289063 0-13.0625-4.523437-13.0625-14.441406zm0 0"/><path d="m464.261719 154.898438c-1.378907 0-2.507813.5-3.386719 1.253906l-14.820312 11.300781c-2.007813 1.257813-3.136719 3.640625-3.136719 5.902344 0 3.265625 2.132812 6.527343 5.273437 6.527343.878906 0 2.007813-.25 3.011719-1.128906l4.019531-4.015625v67.054688c0 3.390625 4.015625 5.148437 8.160156 5.148437 4.019532 0 8.164063-1.757812 8.164063-5.148437v-81.621094c0-3.265625-3.890625-5.273437-7.285156-5.273437zm0 0"/><path d="m68.457031 378.925781c-16.574219 0-29.382812 7.785157-29.382812 28.753907v35.035156c0 20.96875 12.808593 28.757812 29.382812 28.757812 16.578125 0 29.511719-7.785156 29.511719-28.757812v-35.035156c0-20.96875-12.933594-28.753907-29.511719-28.753907zm13.1875 63.789063c0 9.921875-5.023437 14.441406-13.1875 14.441406-8.285156 0-13.058593-4.523438-13.058593-14.441406v-35.035156c0-9.917969 4.773437-14.4375 13.058593-14.4375 8.164063 0 13.1875 4.519531 13.1875 14.4375zm0 0"/><path d="m150.582031 378.675781c-1.378906 0-2.511719.5-3.390625 1.253907l-14.816406 11.300781c-2.007812 1.257812-3.140625 3.640625-3.140625 5.902343 0 3.265626 2.136719 6.527344 5.273437 6.527344.882813 0 2.011719-.25 3.015626-1.128906l4.019531-4.015625v67.054687c0 3.390626 4.015625 5.148438 8.160156 5.148438 4.019531 0 8.160156-1.757812 8.160156-5.148438v-81.621093c.003907-3.265625-3.890625-5.273438-7.28125-5.273438zm0 0"/><path d="m225.300781 378.925781c-16.578125 0-29.386719 7.785157-29.386719 28.753907v35.035156c0 20.96875 12.808594 28.757812 29.386719 28.757812 16.574219 0 29.507813-7.785156 29.507813-28.757812v-35.035156c0-20.96875-12.933594-28.753907-29.507813-28.753907zm13.183594 63.789063c0 9.921875-5.023437 14.441406-13.183594 14.441406-8.289062 0-13.0625-4.523438-13.0625-14.441406v-35.035156c0-9.917969 4.773438-14.4375 13.0625-14.4375 8.160157 0 13.183594 4.519531 13.183594 14.4375zm0 0"/><path d="m307.421875 378.675781c-1.378906 0-2.507813.5-3.390625 1.253907l-14.816406 11.300781c-2.007813 1.257812-3.136719 3.640625-3.136719 5.902343 0 3.265626 2.132813 6.527344 5.273437 6.527344.878907 0 2.007813-.25 3.011719-1.128906l4.019531-4.015625v67.054687c0 3.390626 4.015626 5.148438 8.160157 5.148438 4.019531 0 8.164062-1.757812 8.164062-5.148438v-81.621093c0-3.265625-3.894531-5.273438-7.285156-5.273438zm0 0"/><path d="m382.140625 378.925781c-16.578125 0-29.382813 7.785157-29.382813 28.753907v35.035156c0 20.96875 12.804688 28.757812 29.382813 28.757812 16.574219 0 29.507813-7.785156 29.507813-28.757812v-35.035156c0-20.96875-12.933594-28.753907-29.507813-28.753907zm13.183594 63.789063c0 9.921875-5.023438 14.441406-13.183594 14.441406-8.289063 0-13.0625-4.523438-13.0625-14.441406v-35.035156c0-9.917969 4.773437-14.4375 13.0625-14.4375 8.160156 0 13.183594 4.519531 13.183594 14.4375zm0 0"/><path d="m464.261719 378.675781c-1.378907 0-2.507813.5-3.386719 1.253907l-14.820312 11.300781c-2.007813 1.257812-3.136719 3.640625-3.136719 5.902343 0 3.265626 2.132812 6.527344 5.273437 6.527344.878906 0 2.007813-.25 3.011719-1.128906l4.019531-4.015625v67.054687c0 3.390626 4.015625 5.148438 8.160156 5.148438 4.019532 0 8.164063-1.757812 8.164063-5.148438v-81.621093c0-3.265625-3.890625-5.273438-7.285156-5.273438zm0 0"/><path d="m58.980469 358.371094c4.015625 0 8.160156-1.757813 8.160156-5.148438v-81.621094c0-3.265624-3.894531-5.273437-7.285156-5.273437-1.378907 0-2.511719.503906-3.390625 1.253906l-14.816406 11.304688c-2.007813 1.253906-3.140626 3.640625-3.140626 5.898437 0 3.265625 2.136719 6.53125 5.273438 6.53125.882812 0 2.011719-.25 3.015625-1.128906l4.019531-4.019531v67.054687c0 3.390625 4.019532 5.148438 8.164063 5.148438zm0 0"/><path d="m132.816406 266.578125c-16.578125 0-29.386718 7.785156-29.386718 28.753906v35.035157c0 20.972656 12.808593 28.757812 29.386718 28.757812 16.574219 0 29.507813-7.785156 29.507813-28.757812v-35.035157c0-20.96875-12.933594-28.753906-29.507813-28.753906zm13.183594 63.789063c0 9.921874-5.023438 14.441406-13.183594 14.441406-8.289062 0-13.0625-4.519532-13.0625-14.441406v-35.035157c0-9.917969 4.773438-14.4375 13.0625-14.4375 8.160156 0 13.183594 4.519531 13.183594 14.4375zm0 0"/><path d="m200.121094 290.1875 4.019531-4.019531v67.054687c0 3.390625 4.019531 5.148438 8.160156 5.148438 4.019531 0 8.164063-1.757813 8.164063-5.148438v-81.621094c0-3.265624-3.894532-5.273437-7.285156-5.273437-1.382813 0-2.511719.503906-3.390626 1.253906l-14.816406 11.304688c-2.007812 1.253906-3.140625 3.640625-3.140625 5.898437 0 3.265625 2.136719 6.53125 5.277344 6.53125.878906 0 2.007813-.25 3.011719-1.128906zm0 0"/><path d="m286.140625 266.578125c-16.578125 0-29.386719 7.785156-29.386719 28.753906v35.035157c0 20.972656 12.808594 28.757812 29.386719 28.757812 16.574219 0 29.507813-7.785156 29.507813-28.757812v-35.035157c0-20.96875-12.933594-28.753906-29.507813-28.753906zm13.183594 63.789063c0 9.921874-5.023438 14.441406-13.183594 14.441406-8.289063 0-13.058594-4.519532-13.058594-14.441406v-35.035157c0-9.917969 4.769531-14.4375 13.058594-14.4375 8.160156 0 13.183594 4.519531 13.183594 14.4375zm0 0"/><path d="m357.464844 286.167969v67.054687c0 3.390625 4.019531 5.148438 8.160156 5.148438 4.019531 0 8.164062-1.757813 8.164062-5.148438v-81.621094c0-3.265624-3.890624-5.273437-7.28125-5.273437-1.382812 0-2.511718.5-3.390624 1.253906l-14.816407 11.300781c-2.011719 1.257813-3.140625 3.644532-3.140625 5.902344 0 3.265625 2.132813 6.53125 5.273438 6.53125.878906 0 2.007812-.253906 3.011718-1.132812zm0 0"/><path d="m468.972656 330.367188v-35.035157c0-20.96875-12.933594-28.753906-29.507812-28.753906-16.578125 0-29.382813 7.785156-29.382813 28.753906v35.035157c0 20.972656 12.804688 28.757812 29.382813 28.757812 16.574218 0 29.507812-7.785156 29.507812-28.757812zm-16.324218 0c0 9.921874-5.023438 14.441406-13.183594 14.441406-8.289063 0-13.0625-4.519532-13.0625-14.441406v-35.035157c0-9.917969 4.773437-14.4375 13.0625-14.4375 8.160156 0 13.183594 4.519531 13.183594 14.4375zm0 0"/><path d="m442.277344 90.515625h-415.566406c-4.308594 0-7.804688-3.492187-7.804688-7.804687 0-4.308594 3.496094-7.804688 7.804688-7.804688h415.566406c4.308594 0 7.804687 3.496094 7.804687 7.804688 0 4.3125-3.496093 7.804687-7.804687 7.804687zm0 0"/><path d="m485.289062 82.710938c0 5.75-4.65625 10.40625-10.40625 10.40625-5.746093 0-10.40625-4.65625-10.40625-10.40625 0-5.746094 4.660157-10.40625 10.40625-10.40625 5.75 0 10.40625 4.660156 10.40625 10.40625zm0 0"/></g></svg>