<?xml version="1.0" encoding="utf-8"?>
<!-- Generator: Adobe Illustrator 22.0.0, SVG Export Plug-In . SVG Version: 6.00 Build 0)  -->
<svg version="1.1" id="Camada_1" xmlns="http://www.w3.org/2000/svg" xmlns:xlink="http://www.w3.org/1999/xlink" x="0px" y="0px"
	 viewBox="0 0 1197.3 1011.4" style="enable-background:new 0 0 1197.3 1011.4;" xml:space="preserve">
<style type="text/css">
	.st0{fill:#2af275;}
</style>
<path class="st0" d="M179.4,788.5c-39.1,0-78.2,0.1-117.3-0.1c-10,0-19.9-0.8-29.9-1.4c-12.4-0.8-21.8-8-24.8-18.6
	c-3.4-12.2-0.8-21.7,10.8-28.7c34.1-20.8,68.5-41,103-61c227.6-132.3,455.3-264.4,683-396.6c2.5-1.5,5.8-2.1,7.8-6.5
	c-4.2,0-7.8,0-11.4,0c-157.9,0-315.8,0.1-473.7-0.2c-9.7,0-16.3,2.6-22.7,9.9c-42.8,49.1-97.2,67.3-161.1,58.5
	C80.2,335.1,18.8,277.5,5.3,215.1c-13-60-0.4-113.6,41.1-159.3C92.3,5.3,163.7-12.5,227.5,9C260.4,20,287.8,38.8,309,66.4
	c4.9,6.5,11,8,18.9,8c277.4-0.2,554.8-0.2,832.1-0.1c4.6,0,9.3-0.2,13.8,0.4c10.9,1.4,18.9,7.6,21.9,17.9c3,10.3,1.8,20.4-7.4,28.3
	c-5,4.3-10.7,7.4-16.3,10.7c-52.6,30.2-105.2,60.3-158,90.6c2.3,3.7,5.7,1.9,8.3,1.9c44.9,0.1,89.9,0.1,134.8,0.1
	c4.2,0,8.5-0.1,12.7,0.4c12.6,1.7,21.6,9.1,23.7,20.3c2.1,11.6-1.7,21.6-11.6,28c-14.5,9.3-29.5,17.9-44.4,26.6
	C890.6,442.2,643.8,585,397,727.9c-3.2,1.9-6.4,3.9-12.6,7.7c6.2,0,9,0,11.8,0c157.5,0,315-0.1,472.5,0.2c8.1,0,13.5-2.4,18.7-8.4
	c45.1-51.4,101.9-70.8,168.7-57.9c62.9,12.2,117.4,65.1,131.9,130.1c22.6,101.4-44.9,193.4-138.5,209.1
	c-65.7,11-121.2-10.4-164-61.8c-5.8-7-11.1-9.8-20-9.8c-276.6,0.2-553.2,0.2-829.8,0.1c-5.4,0-11,0.3-16-1.1
	c-10.7-3.2-17.6-10.7-19.3-22.1c-1.9-11.9,4.3-19.8,13.9-25.5c34.4-20.2,68.9-40.3,103.3-60.5c20.8-12.2,41.7-24.4,62.5-36.6
	C179.8,790.4,179.6,789.4,179.4,788.5z M1066.2,130.5c-5-3.4-8.6-2.4-11.9-2.4c-127.1,0.6-254.2-0.5-381.3,0.8
	c-126.3,1.3-252.7,0.2-379.1,0.5c-8.1,0-11.2-3.3-14.4-9.7c-20.8-40.7-54.9-62.4-99.7-65.7C128,50.3,78.7,83,61.4,132.1
	C44.9,179.2,57,232.5,98.8,266c60.1,48.3,148.6,26.8,176.3-34.3c3.5-7.7,9.1-7.7,15.8-7.7c200.5,0.1,401,0,601.5,0.2
	c8.7,0,16.3-1.6,23.9-6.2c26.3-15.8,53-30.9,79.5-46.4C1018.9,158.2,1042,144.6,1066.2,130.5z M133.4,881.2c0.1,0.7,0.2,1.4,0.4,2.2
	c4.1,0,8.2,0,12.3,0c160.6,0,321.2,0.1,481.8,0c89.9-0.1,179.8-0.4,269.7-0.9c8,0,12.5,2,15.7,9.7c5.4,13.4,14.9,24.3,25.3,34
	c44.9,42,117.2,42.5,162.5-0.3c44.6-42.2,51.1-107.8,14.4-158.1c-50.2-68.7-158.7-63-198.7,10.7c-4.8,8.8-9.9,11.5-19.5,11.5
	c-197.9-0.3-395.7-0.2-593.6-0.2c-5.7,0-11.3-0.5-16.8,2.6C235.7,822.1,184.5,851.6,133.4,881.2z M129.4,733.4
	c0.2,0.7,0.4,1.4,0.6,2.1c47.2,0,94.4-0.1,141.6,0.1c5,0,8.8-2.1,12.8-4.4c247.7-143.4,495.4-286.8,743.1-430.3
	c13.4-7.7,26.7-15.6,40-23.4c-44.8-1.9-88.9-1.8-132.9-2.1c-8-0.1-14.8,2-21.7,6C685.7,412.6,458.3,543.7,231,674.8
	C197.1,694.3,163.2,713.9,129.4,733.4z"/>
</svg>
