<?xml version="1.0" encoding="utf-8"?>
<!-- Generator: Adobe Illustrator 22.0.0, SVG Export Plug-In . SVG Version: 6.00 Build 0)  -->
<svg version="1.1" id="Camada_1" xmlns="http://www.w3.org/2000/svg" xmlns:xlink="http://www.w3.org/1999/xlink" x="0px" y="0px"
	 viewBox="0 0 176 248" style="enable-background:new 0 0 176 248;" xml:space="preserve">
<style type="text/css">
	.st0{fill:#D88D35;}
	.st1{fill:none;}
</style>
<path class="st0" d="M2.9,51.4c0-2.9,0-5.9,0-8.8c0.4-11.1,7.3-18.1,15.9-23.4C33.2,10.2,48.6,3.8,66,3.5c2.8-0.1,5.5-0.8,8.2-0.5
	c2-0.2,4.1,0.5,6-0.5c6.5,0,13,0,19.6,0c4.4,0.8,9,0.9,13.4,1c9.3,0.3,17.8,3.3,25.9,7.5c10.7,5.6,20.6,12.1,28.4,21.7
	c5.5,6.8,6.5,14.5,7.7,22.5c0,2.9,0,5.9,0,8.8c-0.6,16.7-8.3,30.7-16.9,44.5c-4.8,7.6-9.1,15.4-12.7,23.6
	c-5.2,11.7-5.2,23.3-1.7,35.3c1.5,5,3.1,10,4.6,14.9c4.3,14.7,4.5,29.1-5.6,41.8c-10.7,13.5-24.7,20.7-42.2,20.4
	c-1.3,0-2.6-0.4-3.8,0.5c-5.9,0-11.7,0-17.6,0c-4.7-0.9-9.6-0.8-14.3-1.6c-19.2-3.3-34.9-12-44.2-30c-6.4-12.4-5.2-24.9,0.3-37.2
	c4.6-10.3,10.9-19.6,15-30.2c8.5-21.8,5-41.4-10-59.2c-3.2-3.7-6.5-7.3-9.9-10.8C9.3,69.2,3.5,61.7,2.9,51.4z"/>
<rect id="_x3C_Fatia_x3E_" x="1" class="st1" width="174" height="247"/>
</svg>
